<svg xmlns="http://www.w3.org/2000/svg" xmlns:xlink="http://www.w3.org/1999/xlink" xmlns:svg="http://www.w3.org/2000/svg" version="1.1" width="277" height="187" viewBox="165 76 277 187"><defs><clipPath id="clippath0" transform=""><path d="M 376.087 333.389 L 391.691 319.695 L 315.629 238.646 L 287.635 265.64 C 242.849 208.687 207.922 183.712 194.559 175.399 L 194.559 175.399 L 225.499 175.399 C 245.923 189.626 288.301 236.313 288.301 236.313 L 288.301 236.313 L 317.296 210.319 L 407.398 305.911 L 424.912 290.54 L 438.261 354.336 Z" fill="none" clip-rule="nonzero"></path></clipPath><linearGradient id="shading0" gradientUnits="userSpaceOnUse" x1="0" y1="0" x2="1" y2="0"><stop offset="0" stop-color="#88c946"></stop><stop offset="0.03571428571428571" stop-color="#86c746"></stop><stop offset="0.27380952380952384" stop-color="#58b044"></stop><stop offset="0.5476190476190477" stop-color="#289743"></stop><stop offset="0.680952380952381" stop-color="#207454"></stop><stop offset="0.7904761904761904" stop-color="#1b565d"></stop><stop offset="0.905952380952381" stop-color="#183861"></stop><stop offset="1" stop-color="#162061"></stop></linearGradient><clipPath id="clippath1" transform=""><path d="M 358.124 243.461 L 358.124 175.399 L 434.002 175.399 L 374.712 261.059 Z" fill="none" clip-rule="nonzero"></path></clipPath><linearGradient id="shading1" gradientUnits="userSpaceOnUse" x1="0" y1="0" x2="1" y2="0"><stop offset="0" stop-color="#88c946"></stop><stop offset="0.03571428571428571" stop-color="#86c746"></stop><stop offset="0.27380952380952384" stop-color="#58b044"></stop><stop offset="0.5476190476190477" stop-color="#289743"></stop><stop offset="0.680952380952381" stop-color="#207454"></stop><stop offset="0.7904761904761904" stop-color="#1b565d"></stop><stop offset="0.905952380952381" stop-color="#183861"></stop><stop offset="1" stop-color="#162061"></stop></linearGradient><clipPath id="clippath2" transform=""><path d="M 322.025 205.161 L 322.025 175.399 L 346.253 175.399 L 346.253 230.865 Z" fill="none" clip-rule="nonzero"></path></clipPath><linearGradient id="shading2" gradientUnits="userSpaceOnUse" x1="0" y1="0" x2="1" y2="0"><stop offset="0" stop-color="#88c946"></stop><stop offset="0.03571428571428571" stop-color="#86c746"></stop><stop offset="0.27380952380952384" stop-color="#58b044"></stop><stop offset="0.5476190476190477" stop-color="#289743"></stop><stop offset="0.680952380952381" stop-color="#207454"></stop><stop offset="0.7904761904761904" stop-color="#1b565d"></stop><stop offset="0.905952380952381" stop-color="#183861"></stop><stop offset="1" stop-color="#162061"></stop></linearGradient><clipPath id="clippath3" transform=""><path d="M 285.926 223.463 L 285.926 175.399 L 310.153 175.399 L 310.153 207.35 L 288.772 226.519 C 287.923 225.603 286.961 224.572 285.926 223.463" fill="none" clip-rule="nonzero"></path></clipPath><linearGradient id="shading3" gradientUnits="userSpaceOnUse" x1="0" y1="0" x2="1" y2="0"><stop offset="0" stop-color="#88c946"></stop><stop offset="0.03571428571428571" stop-color="#86c746"></stop><stop offset="0.27380952380952384" stop-color="#58b044"></stop><stop offset="0.5476190476190477" stop-color="#289743"></stop><stop offset="0.680952380952381" stop-color="#207454"></stop><stop offset="0.7904761904761904" stop-color="#1b565d"></stop><stop offset="0.905952380952381" stop-color="#183861"></stop><stop offset="1" stop-color="#162061"></stop></linearGradient><clipPath id="clippath4" transform=""><path d="M 262.195 198.879 C 257.601 194.296 253.5 190.33 249.826 186.883 L 249.826 186.883 L 249.826 175.399 L 274.054 175.399 L 274.054 210.955 C 270.33 207.094 266.306 202.981 262.195 198.879" fill="none" clip-rule="nonzero"></path></clipPath><linearGradient id="shading4" gradientUnits="userSpaceOnUse" x1="0" y1="0" x2="1" y2="0"><stop offset="0" stop-color="#88c946"></stop><stop offset="0.03571428571428571" stop-color="#86c746"></stop><stop offset="0.27380952380952384" stop-color="#58b044"></stop><stop offset="0.5476190476190477" stop-color="#289743"></stop><stop offset="0.680952380952381" stop-color="#207454"></stop><stop offset="0.7904761904761904" stop-color="#1b565d"></stop><stop offset="0.905952380952381" stop-color="#183861"></stop><stop offset="1" stop-color="#162061"></stop></linearGradient><clipPath id="clippath5" transform=""><path d="M 252.301 261.447 L 236.934 274.892 L 168.941 175.399 L 179.434 175.399 L 185.576 178.256 C 185.963 178.447 226.434 199.101 282.15 269.953 L 282.15 269.953 L 286.922 276.022 L 315.382 248.579 L 342.948 277.953 L 326.545 293.663 L 313.066 276.368 L 313.066 333.845 L 347.888 283.217 L 354.5 290.263 L 312.227 351.337 Z" fill="none" clip-rule="nonzero"></path></clipPath><linearGradient id="shading5" gradientUnits="userSpaceOnUse" x1="0" y1="0" x2="1" y2="0"><stop offset="0" stop-color="#88c946"></stop><stop offset="0.03571428571428571" stop-color="#86c746"></stop><stop offset="0.27380952380952384" stop-color="#58b044"></stop><stop offset="0.5476190476190477" stop-color="#289743"></stop><stop offset="0.680952380952381" stop-color="#207454"></stop><stop offset="0.7904761904761904" stop-color="#1b565d"></stop><stop offset="0.905952380952381" stop-color="#183861"></stop><stop offset="1" stop-color="#162061"></stop></linearGradient><clipPath id="clippath6" transform=""><path d="M 0 434.34 L 607.34 434.34 L 607.34 0 L 0 0 Z" fill="none" clip-rule="nonzero"></path></clipPath><clipPath id="clippath7" transform=""><path d="M 165.361 90.88 L 189.661 90.88 L 189.661 93.099 L 165.361 93.099 Z" fill="none" clip-rule="nonzero"></path></clipPath><linearGradient id="shading6" gradientUnits="userSpaceOnUse" x1="0" y1="0" x2="1" y2="0"><stop offset="0" stop-color="#88c946"></stop><stop offset="0.03571428571428571" stop-color="#86c746"></stop><stop offset="0.27380952380952384" stop-color="#58b044"></stop><stop offset="0.5476190476190477" stop-color="#289743"></stop><stop offset="0.680952380952381" stop-color="#207454"></stop><stop offset="0.7904761904761904" stop-color="#1b565d"></stop><stop offset="0.905952380952381" stop-color="#183861"></stop><stop offset="1" stop-color="#162061"></stop></linearGradient><clipPath id="clippath8" transform=""><path d="M 413.96 89.771 L 438.261 89.771 L 438.261 91.99 L 413.96 91.99 Z" fill="none" clip-rule="nonzero"></path></clipPath><linearGradient id="shading7" gradientUnits="userSpaceOnUse" x1="0" y1="0" x2="1" y2="0"><stop offset="0" stop-color="#88c946"></stop><stop offset="0.03571428571428571" stop-color="#86c746"></stop><stop offset="0.27380952380952384" stop-color="#58b044"></stop><stop offset="0.5476190476190477" stop-color="#289743"></stop><stop offset="0.680952380952381" stop-color="#207454"></stop><stop offset="0.7904761904761904" stop-color="#1b565d"></stop><stop offset="0.905952380952381" stop-color="#183861"></stop><stop offset="1" stop-color="#162061"></stop></linearGradient></defs><g transform="matrix(1 0 0 -1 0 434.34)"><g transform=""><path d="M 376.087 333.389 L 391.691 319.695 L 315.629 238.646 L 287.635 265.64 C 242.849 208.687 207.922 183.712 194.559 175.399 L 194.559 175.399 L 225.499 175.399 C 245.923 189.626 288.301 236.313 288.301 236.313 L 288.301 236.313 L 317.296 210.319 L 407.398 305.911 L 424.912 290.54 L 438.261 354.336 Z" fill="none"></path></g><g clip-path="url(#clippath0)"><g transform="matrix(-291.3916321 -126.6294479 -126.6294479 291.3916321 467.905426 324.5297852)"><rect x="-0.5402522265574101" y="-1.1117220969593848" width="2.2980444372125026" height="2.0156717401210624" fill="url(#shading0)"></rect></g></g><g transform=""><path d="M 358.124 243.461 L 358.124 175.399 L 434.002 175.399 L 374.712 261.059 Z" fill="none"></path></g><g clip-path="url(#clippath1)"><g transform="matrix(-291.3916321 -126.6294479 -126.6294479 291.3916321 496.66745 258.3444214)"><rect x="-0.540252255892411" y="-0.8845866792113161" width="2.2980444372125026" height="2.0156717401210624" fill="url(#shading1)"></rect></g></g><g transform=""><path d="M 322.025 205.161 L 322.025 175.399 L 346.253 175.399 L 346.253 230.865 Z" fill="none"></path></g><g clip-path="url(#clippath2)"><g transform="matrix(-291.3916321 -126.6294479 -126.6294479 291.3916321 492.9560242 266.8849182)"><rect x="-0.5402522561569565" y="-0.9138960206359468" width="2.2980444372125026" height="2.0156717401210624" fill="url(#shading2)"></rect></g></g><g transform=""><path d="M 285.926 223.463 L 285.926 175.399 L 310.153 175.399 L 310.153 207.35 L 288.772 226.519 C 287.923 225.603 286.961 224.572 285.926 223.463" fill="none"></path></g><g clip-path="url(#clippath3)"><g transform="matrix(-291.3916321 -126.6294479 -126.6294479 291.3916321 486.317749 282.1604919)"><rect x="-0.5402522599300368" y="-0.9663188512700838" width="2.2980444372125026" height="2.0156717401210624" fill="url(#shading3)"></rect></g></g><g transform=""><path d="M 262.195 198.879 C 257.601 194.296 253.5 190.33 249.826 186.883 L 249.826 186.883 L 249.826 175.399 L 274.054 175.399 L 274.054 210.955 C 270.33 207.094 266.306 202.981 262.195 198.879" fill="none"></path></g><g clip-path="url(#clippath4)"><g transform="matrix(-291.3916321 -126.6294479 -126.6294479 291.3916321 485.1263428 284.9020691)"><rect x="-0.5402522736990516" y="-0.9757274225588499" width="2.2980444372125026" height="2.0156717401210624" fill="url(#shading4)"></rect></g></g><g transform=""><path d="M 252.301 261.447 L 236.934 274.892 L 168.941 175.399 L 179.434 175.399 L 185.576 178.256 C 185.963 178.447 226.434 199.101 282.15 269.953 L 282.15 269.953 L 286.922 276.022 L 315.382 248.579 L 342.948 277.953 L 326.545 293.663 L 313.066 276.368 L 313.066 333.845 L 347.888 283.217 L 354.5 290.263 L 312.227 351.337 Z" fill="none"></path></g><g clip-path="url(#clippath5)"><g transform="matrix(-291.3916321 -126.6294479 -126.6294479 291.3916321 454.9854431 354.2604065)"><rect x="-0.5402522537307872" y="-1.2137518791006467" width="2.2980444372125026" height="2.0156717401210624" fill="url(#shading5)"></rect></g></g><g transform=""><path d="M 0 434.34 L 607.34 434.34 L 607.34 0 L 0 0 Z" fill="none"></path></g><g clip-path="url(#clippath6)"><g transform="translate(209.2803 130.3275)"></g></g><g clip-path="url(#clippath6)"><g transform="translate(263.9729 136.0987)"></g></g><g clip-path="url(#clippath6)"><g transform="translate(329.442 115.1243)"></g></g><g clip-path="url(#clippath6)"><g transform=""></g><g transform="translate(434.0017 153.3437)"></g><g transform=""></g></g><g transform=""><path d="M 165.361 90.88 L 189.661 90.88 L 189.661 93.099 L 165.361 93.099 Z" fill="none"></path></g><g clip-path="url(#clippath7)"></g><g transform=""><path d="M 413.96 89.771 L 438.261 89.771 L 438.261 91.99 L 413.96 91.99 Z" fill="none"></path></g><g clip-path="url(#clippath8)"></g></g></svg>